{"title":"beauty and the beast 1080p blu ray .mkv by winker@1337x+kidzcorn","uid":5983565,"size":1146565983,"categoryP":"video","categoryS":"hd___movies","magnet":"?xt=urn:btih:9dbb077e4efc697e60d7d59cae3104b940c1e030&amp;dn=beauty+and+the+beast+1080p+blu+ray+.mkv+by+winker%401337x%2Bkidzcorn&amp;tr=udp%3A%2F%2Ftracker.openbittorrent.com%3A80&amp;tr=udp%3A%2F%2Fopen.demonii.com%3A1337&amp;tr=udp%3A%2F%2Ftracker.coppersurfer.tk%3A6969&amp;tr=udp%3A%2F%2Fexodus.desync.com%3A6969","seeders":6,"leechers":1,"uploader":"alanwatson","files":-1,"time":1290661907,"description":"When an arrogant prince is cursed to become a Beast, the only way to break the spell is to love and be loved in return. But who could ever learn to love a Beast? After he imprisons Belle, a bookworm who dreams of life outside her provincial village, he sees her as difficult and stubborn while she views him as a monster. But the two soon taste the bitter-sweetness of finding you can change and learning you were wrong.\n\nFormat                           : Matroska\nFile size                        : 1.07 GiB\nDuration                         : 1h 31mn\nOverall bit rate                 : 1 665 Kbps\nMovie name                       : BEAUTYANDTHEBEAST Title801\nEncoded date                     : UTC 2010-11-24 17:18:57\n\n\n\nVideo\nID                               : 1\nFormat                           : AVC\nFormat/Info                      : Advanced Video Codec\nFormat profile                   : &lt;a class=&quot;__cf_email__&quot; href=&quot;/cdn-cgi/l/email-protection&quot; data-cfemail=&quot;f1b9989699b1bdc5dfc1&quot;&gt;[email&amp;#160;protected]&lt;/a&gt;&lt;script cf-hash='f9e31' type=&quot;text/javascript&quot;&gt;\n/* &lt;![CDATA[ */!function(){try{var t=&quot;currentScript&quot;in document?document.currentScript:function(){for(var t=document.getElementsByTagName(&quot;script&quot;),e=t.length;e--;)if(t[e].getAttribute(&quot;cf-hash&quot;))return t[e]}();if(t&amp;&amp;t.previousSibling){var e,r,n,i,c=t.previousSibling,a=c.getAttribute(&quot;data-cfemail&quot;);if(a){for(e=&quot;&quot;,r=parseInt(a.substr(0,2),16),n=2;a.length-n;n+=2)i=parseInt(a.substr(n,2),16)^r,e+=String.fromCharCode(i);e=document.createTextNode(e),c.parentNode.replaceChild(e,c)}}}catch(u){}}();/* ]]&gt; */&lt;/script&gt;\nFormat settings, CABAC           : Yes\nFormat settings, ReFrames        : 3 frames\nCodec ID                         : V_MPEG4/ISO/AVC\nDuration                         : 1h 31mn\nBit rate mode                    : Variable\nBit rate                         : 1 024 Kbps\nMaximum bit rate                 : 25.0 Mbps\nWidth                            : 1 920 pixels\nHeight                           : 1 080 pixels\nDisplay aspect ratio             : 16:9\nFrame rate                       : 23.976 fps\nColor space                      : YUV\nChroma subsampling               : 4:2:0\nBit depth                        : 8 bits\nScan type                        : Progressive\nBits/(Pixel*Frame)               : 0.021\nStream size                      : 651 MiB (60%)\nWriting library                  : x264 core 105 r1732 2b04482\n\n\nAudio\nID                               : 2\nFormat                           : AC-3\nFormat/Info                      : Audio Coding 3\nMode extension                   : CM (complete main)\nCodec ID                         : A_AC3\nDuration                         : 1h 31mn\nBit rate mode                    : Constant\nBit rate                         : 640 Kbps\nChannel(s)                       : 6 channels\nChannel positions                : Front: L C R, Side: L R, LFE\nSampling rate                    : 48.0 KHz\nBit depth                        : 16 bits\nStream size                      : 420 MiB (38%)\nLanguage                         : English\n","torrent":{"xt":"urn:btih:9dbb077e4efc697e60d7d59cae3104b940c1e030","amp;dn":"beauty+and+the+beast+1080p+blu+ray+.mkv+by+winker%401337x%2Bkidzcorn","amp;tr":["udp%3A%2F%2Ftracker.openbittorrent.com%3A80","udp%3A%2F%2Fopen.demonii.com%3A1337","udp%3A%2F%2Ftracker.coppersurfer.tk%3A6969","udp%3A%2F%2Fexodus.desync.com%3A6969"],"infoHash":"9dbb077e4efc697e60d7d59cae3104b940c1e030","infoHashBuffer":{"type":"Buffer","data":[157,187,7,126,78,252,105,126,96,215,213,156,174,49,4,185,64,193,224,48]},"announce":[],"urlList":[]}}